<?xml version="1.0" encoding="UTF-8" standalone="no" ?>
<!DOCTYPE svg PUBLIC "-//W3C//DTD SVG 1.1//EN" "http://www.w3.org/Graphics/SVG/1.1/DTD/svg11.dtd">
<svg xmlns="http://www.w3.org/2000/svg" xmlns:xlink="http://www.w3.org/1999/xlink" version="1.1" width="1080" height="1080" viewBox="0 0 1080 1080" xml:space="preserve">
<desc>Created with Fabric.js 5.2.4</desc>
<defs>
</defs>
<rect x="0" y="0" width="100%" height="100%" fill="transparent"></rect>
<g transform="matrix(1 0 0 1 540 540)" id="e4f72375-c1e2-4d41-9349-4262c6770f4c"  >
</g>
<g transform="matrix(1 0 0 1 540 540)" id="26e53a14-60f8-4143-b5cc-13747b6c9e83"  >
<rect style="stroke: none; stroke-width: 1; stroke-dasharray: none; stroke-linecap: butt; stroke-dashoffset: 0; stroke-linejoin: miter; stroke-miterlimit: 4; fill: rgb(255,255,255); fill-rule: nonzero; opacity: 1; visibility: hidden;" vector-effect="non-scaling-stroke"  x="-540" y="-540" rx="0" ry="0" width="1080" height="1080" />
</g>
<g transform="matrix(31.2 0 0 31.2 540 457.4)"  >
<g style="" vector-effect="non-scaling-stroke"   >
		<g transform="matrix(1 0 0 1 3.71 2.35)"  >
<path style="stroke: none; stroke-width: 1; stroke-dasharray: none; stroke-linecap: butt; stroke-dashoffset: 0; stroke-linejoin: miter; stroke-miterlimit: 4; fill: rgb(0,0,0); fill-rule: nonzero; opacity: 1;" vector-effect="non-scaling-stroke"  transform=" translate(-15.71, -14.36)" d="M 22 14.355 C 22 13.613 21.436 13.009 20.74 13.009 L 10.676 13.009 C 9.98 13.009 9.416 13.613 9.416 14.355 C 9.416 15.097000000000001 9.979000000000001 15.701 10.676 15.701 L 20.74 15.701 C 21.436 15.702 22 15.098 22 14.355 z" stroke-linecap="round" />
</g>
		<g transform="matrix(1 0 0 1 -1.82 0)"  >
<path style="stroke: none; stroke-width: 1; stroke-dasharray: none; stroke-linecap: butt; stroke-dashoffset: 0; stroke-linejoin: miter; stroke-miterlimit: 4; fill: rgb(0,0,0); fill-rule: nonzero; opacity: 1;" vector-effect="non-scaling-stroke"  transform=" translate(-10.18, -12)" d="M 3.482 18.187 L 7.795 22.548000000000002 C 8.768 23.527 10.113 24 11.598 24 C 13.083 24 14.428 23.488 15.403 22.506 L 17.991 19.869 C 18.501 19.355 18.483 18.504 17.951999999999998 17.969 C 17.421 17.434 16.576999999999998 17.416 16.067999999999998 17.93 L 13.391999999999998 20.537 C 12.929999999999998 21.003999999999998 12.289999999999997 21.198999999999998 11.582999999999998 21.198999999999998 C 10.876 21.198999999999998 10.236999999999998 21.003999999999998 9.772999999999998 20.537 L 5.474999999999998 16.174 C 5.011999999999998 15.706999999999999 4.778999999999998 15.024 4.778999999999998 14.311 C 4.778999999999998 13.598 5.011999999999998 12.954 5.474999999999998 12.487 L 9.759999999999998 8.107 C 10.222999999999997 7.64 10.875999999999998 7.462 11.581999999999997 7.462 C 12.287999999999997 7.462 12.927999999999997 7.657 13.390999999999996 8.124 L 16.066999999999997 10.73 C 16.576999999999998 11.245000000000001 17.420999999999996 11.227 17.951999999999998 10.692 C 18.482999999999997 10.156 18.500999999999998 9.305 17.991 8.791 L 15.402999999999999 6.155 C 14.753999999999998 5.509 13.931999999999999 5.039 13.011 4.825 L 12.976999999999999 4.8180000000000005 L 15.424 2.3150000000000004 C 15.936 1.8010000000000004 15.918 0.9490000000000003 15.386999999999999 0.41400000000000037 C 14.855999999999998 -0.12099999999999966 14.011 -0.13799999999999968 13.499999999999998 0.3760000000000004 L 3.482 10.476 C 2.509 11.458 2 12.813 2 14.311 C 2 15.809 2.509 17.207 3.482 18.187 z" stroke-linecap="round" />
</g>
</g>
</g>
</svg>