<?xml version="1.0" encoding="UTF-8"?>
<svg version="1.1" xmlns="http://www.w3.org/2000/svg" width="100" height="100">
<path d="M0 0 C1 1 1 1 1.09765625 4.59765625 C1.0909822 6.08596867 1.07902183 7.57426432 1.0625 9.0625 C1.05798828 9.82111328 1.05347656 10.57972656 1.04882812 11.36132812 C1.0370068 13.24091871 1.01907078 15.12046899 1 17 C-0.32 17 -1.64 17 -3 17 C-2.67 17.66 -2.34 18.32 -2 19 C-1.01 18.67 -0.02 18.34 1 18 C1.07347656 16.66195313 1.07347656 16.66195313 1.1484375 15.296875 C1.22320312 14.12640625 1.29796875 12.9559375 1.375 11.75 C1.44460937 10.58984375 1.51421875 9.4296875 1.5859375 8.234375 C1.96248308 5.29305666 2.4774123 3.50050989 4 1 C9.55602998 -0.39676731 14.57414128 -0.99166398 20 1 C28.98703649 7.23836787 38.79769334 16.38138522 42 27 C43.39739474 28.63802269 43.39739474 28.63802269 45.0625 29.75 C48 32 48 32 49 34 C50.02472503 44.20185107 50.68367661 54.68518803 44 63 C43.1028125 64.5159375 43.1028125 64.5159375 42.1875 66.0625 C41.795625 66.701875 41.40375 67.34125 41 68 C42.299375 68.37125 42.299375 68.37125 43.625 68.75 C47.67969543 70.25173905 51.9892331 71.9784662 54 76 C54 78.31 54 80.62 54 83 C40.14 83 26.28 83 12 83 C12 80.69 12 78.38 12 76 C10.90328979 75.99383667 10.90328979 75.99383667 9.78442383 75.98754883 C6.45963693 75.95457791 3.13667384 75.88392853 -0.1875 75.8125 C-1.91323242 75.80379883 -1.91323242 75.80379883 -3.67382812 75.79492188 C-4.78564453 75.76591797 -5.89746094 75.73691406 -7.04296875 75.70703125 C-8.06414795 75.6913208 -9.08532715 75.67561035 -10.13745117 75.65942383 C-14.38746593 74.68037992 -15.59501164 73.70312933 -18 70 C-18.74063242 65.3121838 -18.67969643 60.63922363 -18.62890625 55.90625 C-18.62973555 54.51289688 -18.63219723 53.11954386 -18.63621521 51.72619629 C-18.63906892 48.81081576 -18.62441582 45.89620532 -18.59692383 42.98095703 C-18.56284004 39.25157989 -18.56886233 35.5235791 -18.5875864 31.79413605 C-18.59817568 28.91836152 -18.58920145 26.04290502 -18.57420158 23.16716003 C-18.56903334 21.79250535 -18.56948508 20.41781726 -18.57574654 19.04316711 C-18.5812209 17.11922899 -18.55792188 15.19527461 -18.53344727 13.27148438 C-18.52724869 12.17848022 -18.52105011 11.08547607 -18.5146637 9.95935059 C-17.88026258 6.31150184 -16.55549065 4.63174877 -14 2 C-11.81640625 1.07421875 -11.81640625 1.07421875 -9.5625 0.6875 C-8.38880859 0.48253906 -8.38880859 0.48253906 -7.19140625 0.2734375 C-4.75511169 -0.03055647 -2.44944082 -0.22963508 0 0 Z M-3 2 C-3 4.62834278 -2.80210238 7.08186701 -2.5 9.6875 C-2.4071875 10.49574219 -2.314375 11.30398437 -2.21875 12.13671875 C-2.1465625 12.75160156 -2.074375 13.36648437 -2 14 C-1.34 14 -0.68 14 0 14 C0.02698189 12.37509046 0.04638757 10.75005367 0.0625 9.125 C0.07410156 8.22007813 0.08570313 7.31515625 0.09765625 6.3828125 C0.16249257 3.9831415 0.16249257 3.9831415 -1 2 C-1.66 2 -2.32 2 -3 2 Z M-15 8 C-16.07875665 11.07799877 -16.13179408 13.99759096 -16.14526367 17.23999023 C-16.15164352 18.28464951 -16.15802338 19.32930878 -16.16459656 20.40562439 C-16.16570938 21.52860428 -16.1668222 22.65158417 -16.16796875 23.80859375 C-16.17129715 24.96746597 -16.17462555 26.1263382 -16.17805481 27.32032776 C-16.18311626 29.77059533 -16.18546338 32.22086979 -16.18530273 34.67114258 C-16.18748953 38.419549 -16.20565467 42.16766126 -16.22460938 45.91601562 C-16.22754338 48.29687399 -16.22952813 50.67773376 -16.23046875 53.05859375 C-16.23765427 54.17954941 -16.24483978 55.30050507 -16.25224304 56.45542908 C-16.24916641 57.50324051 -16.24608978 58.55105194 -16.24291992 59.63061523 C-16.24434494 60.54898666 -16.24576996 61.46735809 -16.24723816 62.41355896 C-15.86531375 66.40899786 -14.84378491 69.15621509 -12 72 C-7.08295245 73.67326394 -1.75401819 73.2244825 3.375 73.25 C4.40367188 73.270625 5.43234375 73.29125 6.4921875 73.3125 C12.18267327 73.3418324 16.18573299 73.14333585 21 70 C21 69.67 21 69.34 21 69 C20.13721436 68.98541748 19.27442871 68.97083496 18.38549805 68.95581055 C15.18150353 68.89472246 11.97815375 68.82056451 8.7746582 68.73754883 C7.38870623 68.70431451 6.00261939 68.67627774 4.61645508 68.65356445 C2.62293157 68.61999383 0.62978259 68.56612 -1.36328125 68.51171875 C-2.56251221 68.48553467 -3.76174316 68.45935059 -4.99731445 68.43237305 C-8 68 -8 68 -9.66340637 66.7963562 C-11.46211121 64.3789314 -11.38047881 62.82433901 -11.38818359 59.82592773 C-11.40236832 58.24430092 -11.40236832 58.24430092 -11.4168396 56.63072205 C-11.41076691 55.49316971 -11.40469421 54.35561737 -11.3984375 53.18359375 C-11.40274277 51.43249046 -11.40274277 51.43249046 -11.40713501 49.64601135 C-11.40917751 47.17716995 -11.40363472 44.70831244 -11.39111328 42.23950195 C-11.37504881 38.44901579 -11.39096408 34.6595937 -11.41015625 30.86914062 C-11.40817414 28.47395597 -11.40433112 26.07877198 -11.3984375 23.68359375 C-11.40754654 21.9742289 -11.40754654 21.9742289 -11.4168396 20.23033142 C-11.40738312 19.1790657 -11.39792664 18.12779999 -11.38818359 17.04467773 C-11.38579681 16.11662827 -11.38341003 15.1885788 -11.38095093 14.23240662 C-11.25523712 13.49571243 -11.12952332 12.75901825 -11 12 C-10.01 11.34 -9.02 10.68 -8 10 C-8.48750732 10.94601074 -8.97501465 11.89202148 -9.47729492 12.86669922 C-11.49004126 17.58985914 -11.41455237 22.06327878 -11.36328125 27.1328125 C-11.36377975 28.08767548 -11.36427826 29.04253845 -11.36479187 30.02633667 C-11.36246135 32.03499443 -11.35279356 34.04365567 -11.33618164 36.05224609 C-11.31252053 39.12233611 -11.31563726 42.19156024 -11.32226562 45.26171875 C-11.31669034 47.21875516 -11.3095814 49.17578793 -11.30078125 51.1328125 C-11.30169266 52.04749298 -11.30260406 52.96217346 -11.30354309 53.90457153 C-11.33441746 60.24155442 -11.33441746 60.24155442 -9 66 C-5.15309998 68.27575136 -1.56291388 68.23403448 2.83203125 68.1953125 C4.12431641 68.18886719 5.41660156 68.18242188 6.74804688 68.17578125 C8.1028673 68.15907327 9.45768501 68.14214342 10.8125 68.125 C12.18684251 68.11496003 13.56119203 68.10583596 14.93554688 68.09765625 C18.29054317 68.07411242 21.64518199 68.04122567 25 68 C24.00985856 63.57121877 21.83924451 60.41211056 19.375 56.6328125 C15.77430586 49.73830155 16.70366435 41.4429067 18 34 C19.93299918 29.97472831 22.90653511 27.67824764 27 26 C29.796875 25.5859375 29.796875 25.5859375 32.75 25.375 C33.73484375 25.30023438 34.7196875 25.22546875 35.734375 25.1484375 C36.48203125 25.09945312 37.2296875 25.05046875 38 25 C38 24.67 38 24.34 38 24 C36.57107422 23.96132813 36.57107422 23.96132813 35.11328125 23.921875 C33.85902344 23.86515625 32.60476562 23.8084375 31.3125 23.75 C30.07113281 23.70359375 28.82976562 23.6571875 27.55078125 23.609375 C23.41946209 22.90036973 21.73111719 22.17950957 19 19 C18.46574086 16.22539454 18.21108048 14.02201654 18.1875 11.25 C18.16236328 10.55261719 18.13722656 9.85523438 18.11132812 9.13671875 C18.05271038 7.42508051 18.02342947 5.7124814 18 4 C13.38 4 8.76 4 4 4 C3.67 9.28 3.34 14.56 3 20 C-2 21 -2 21 -5 20 C-5.33 14.72 -5.66 9.44 -6 4 C-10.70781138 4 -11.70934836 4.79828489 -15 8 Z M19 6 C18.69507757 12.75774129 18.69507757 12.75774129 21 19 C23.24073836 21.08068562 24.50970383 21.94428453 27.578125 22.29296875 C28.90070313 22.24076172 28.90070313 22.24076172 30.25 22.1875 C31.14203125 22.16042969 32.0340625 22.13335937 32.953125 22.10546875 C33.96632813 22.05326172 33.96632813 22.05326172 35 22 C30.31645873 16.35573231 25.3792354 10.9941954 20 6 C19.67 6 19.34 6 19 6 Z M20.125 32.6875 C18.37689009 36.28083704 18.41642262 40.07411579 19 44 C19.66 44.66 20.32 45.32 21 46 C21.33 44.35 21.66 42.7 22 41 C23.0209375 40.87625 23.0209375 40.87625 24.0625 40.75 C27.8746907 39.77667472 30.64070329 38.04192545 34 36 C34 37.65 34 39.3 34 41 C35.37562854 39.71034824 36.70766393 38.37310707 38 37 C38 36.34 38 35.68 38 35 C40.7839183 36.39195915 40.97898997 38.15575779 42 41 C41.38125 40.79375 40.7625 40.5875 40.125 40.375 C39.42375 40.25125 38.7225 40.1275 38 40 C37.34 40.66 36.68 41.32 36 42 C33.375 42.625 33.375 42.625 31 43 C30.67 42.01 30.34 41.02 30 40 C29.401875 40.639375 28.80375 41.27875 28.1875 41.9375 C26 44 26 44 23 45 C23 46.32 23 47.64 23 49 C22.01 49 21.02 49 20 49 C20.81514046 54.54295513 22.66765688 59.03396737 26.8125 62.875 C29.79668254 65.13341025 29.79668254 65.13341025 32.9375 65.6875 C37.38941922 64.68808956 39.98437133 62.35069852 43 59 C45.36402726 55.18705281 46 53.52645405 46 49 C45.01 49 44.02 49 43 49 C42.67 46.69 42.34 44.38 42 42 C42.66 42 43.32 42 44 42 C44 43.32 44 44.64 44 46 C44.66 46 45.32 46 46 46 C47.73847372 42.52305257 47.59167787 38.79331259 47 35 C44.8744845 32.04089856 44.8744845 32.04089856 42 30 C41.07574219 29.20529297 41.07574219 29.20529297 40.1328125 28.39453125 C33.02353704 23.74615883 25.68249444 27.685755 20.125 32.6875 Z M28 66 C28 66.99 28 67.98 28 69 C30.97 69 33.94 69 37 69 C37 68.01 37 67.02 37 66 C34.03 66 31.06 66 28 66 Z M26 70 C26 70.99 26 71.98 26 73 C27.32 73 28.64 73 30 73 C30.33 72.34 30.66 71.68 31 71 C29.35 70.67 27.7 70.34 26 70 Z M38 70 C37.01 70.66 36.02 71.32 35 72 C36.98 72.99 36.98 72.99 39 74 C39.66 73.01 40.32 72.02 41 71 C40.01 70.67 39.02 70.34 38 70 Z M43 72 C42.01 74.97 41.02 77.94 40 81 C43.96 81 47.92 81 52 81 C49.85876338 75.64690846 48.78294153 74.74764726 44 72 C43.67 72 43.34 72 43 72 Z M16 76 C15.34 77.65 14.68 79.3 14 81 C17.96 81 21.92 81 26 81 C25.01 78.03 24.02 75.06 23 72 C20.40708149 72 17.9278066 74.5443093 16 76 Z M32 73 C32 73.66 32 74.32 32 75 C32.66 75 33.32 75 34 75 C34 74.34 34 73.68 34 73 C33.34 73 32.68 73 32 73 Z M27 76 C27.33 77.65 27.66 79.3 28 81 C28.66 81 29.32 81 30 81 C30 79.35 30 77.7 30 76 C29.01 76 28.02 76 27 76 Z M36 76 C36 77.65 36 79.3 36 81 C36.66 81 37.32 81 38 81 C38.33 79.35 38.66 77.7 39 76 C38.01 76 37.02 76 36 76 Z M32 77 C32 78.32 32 79.64 32 81 C32.66 81 33.32 81 34 81 C34 79.68 34 78.36 34 77 C33.34 77 32.68 77 32 77 Z " fill="#000000" transform="translate(38,10)"/>
<path d="M0 0 C6.6 0 13.2 0 20 0 C20 0.33 20 0.66 20 1 C13.4 1 6.8 1 0 1 C0 0.67 0 0.34 0 0 Z " fill="#000000" transform="translate(31,65)"/>
<path d="M0 0 C6.27 0 12.54 0 19 0 C19 0.33 19 0.66 19 1 C12.73 1 6.46 1 0 1 C0 0.67 0 0.34 0 0 Z " fill="#000000" transform="translate(31,58)"/>
<path d="M0 0 C6.27 0 12.54 0 19 0 C19 0.33 19 0.66 19 1 C12.73 1 6.46 1 0 1 C0 0.67 0 0.34 0 0 Z " fill="#000000" transform="translate(31,44)"/>
<path d="M0 0 C4.95 0 9.9 0 15 0 C15 0.33 15 0.66 15 1 C10.05 1 5.1 1 0 1 C0 0.67 0 0.34 0 0 Z " fill="#000000" transform="translate(31,51)"/>
</svg>
